<svg width="405" height="30" viewBox="0 0 405 30" fill="none" xmlns="http://www.w3.org/2000/svg">
<path d="M29.2959 7.88L24.8559 10.44C23.8959 8.84 22.6693 7.61333 21.1759 6.76C19.7093 5.88 17.8959 5.44 15.7359 5.44C14.2959 5.44 12.9626 5.68 11.7359 6.16C10.5359 6.64 9.49594 7.30667 8.61594 8.16C7.7626 8.98667 7.0826 9.98667 6.57594 11.16C6.09594 12.3333 5.85594 13.6 5.85594 14.96C5.85594 16.2933 6.0826 17.5467 6.53594 18.72C7.01594 19.8933 7.6826 20.92 8.53594 21.8C9.41594 22.6533 10.4959 23.3333 11.7759 23.84C13.0559 24.32 14.4959 24.56 16.0959 24.56C18.0959 24.56 19.8693 24.12 21.4159 23.24C22.9893 22.3333 24.2293 20.92 25.1359 19L29.6959 21.4C28.3893 23.88 26.6026 25.8533 24.3359 27.32C22.0693 28.7867 19.3226 29.52 16.0959 29.52C13.8559 29.52 11.7893 29.1733 9.89594 28.48C8.02927 27.76 6.41594 26.76 5.05594 25.48C3.69594 24.2 2.62927 22.6667 1.85594 20.88C1.10927 19.0933 0.735938 17.12 0.735938 14.96C0.735938 12.8533 1.1226 10.92 1.89594 9.16C2.66927 7.37333 3.7226 5.84 5.05594 4.56C6.38927 3.28 7.97594 2.28 9.81594 1.56C11.6559 0.839998 13.6293 0.479998 15.7359 0.479998C17.1226 0.479998 18.4959 0.626665 19.8559 0.919999C21.2159 1.21333 22.4826 1.66666 23.6559 2.28C24.8293 2.86667 25.8959 3.62667 26.8559 4.56C27.8426 5.49333 28.6559 6.6 29.2959 7.88ZM35.6578 14.96C35.6578 12.8 36.0578 10.8267 36.8578 9.04C37.6578 7.25333 38.7378 5.73333 40.0978 4.48C41.4578 3.22667 43.0578 2.25333 44.8978 1.56C46.7645 0.839998 48.7378 0.479998 50.8178 0.479998C53.0311 0.479998 55.0711 0.839998 56.9378 1.56C58.8045 2.28 60.4045 3.28 61.7378 4.56C63.0978 5.84 64.1511 7.37333 64.8978 9.16C65.6711 10.92 66.0578 12.8533 66.0578 14.96C66.0578 17.12 65.6578 19.1067 64.8578 20.92C64.0845 22.7067 63.0178 24.24 61.6578 25.52C60.3245 26.7733 58.7245 27.76 56.8578 28.48C54.9911 29.1733 52.9778 29.52 50.8178 29.52C48.7111 29.52 46.7245 29.1733 44.8578 28.48C42.9911 27.76 41.3778 26.7733 40.0178 25.52C38.6845 24.24 37.6178 22.7067 36.8178 20.92C36.0445 19.1067 35.6578 17.12 35.6578 14.96ZM40.8178 14.96C40.8178 16.3733 41.0578 17.68 41.5378 18.88C42.0445 20.0533 42.7378 21.0667 43.6178 21.92C44.4978 22.7467 45.5511 23.4 46.7778 23.88C48.0311 24.3333 49.3778 24.56 50.8178 24.56C52.3111 24.56 53.6711 24.3333 54.8978 23.88C56.1511 23.4 57.2178 22.7467 58.0978 21.92C58.9778 21.0667 59.6578 20.0533 60.1378 18.88C60.6445 17.68 60.8978 16.3733 60.8978 14.96C60.8978 13.6267 60.6578 12.3733 60.1778 11.2C59.7245 10.0267 59.0578 9.02667 58.1778 8.2C57.3245 7.34666 56.2711 6.68 55.0178 6.2C53.7645 5.69333 52.3645 5.44 50.8178 5.44C49.2978 5.44 47.9111 5.69333 46.6578 6.2C45.4311 6.68 44.3778 7.34666 43.4978 8.2C42.6445 9.02667 41.9778 10.0267 41.4978 11.2C41.0445 12.3733 40.8178 13.6267 40.8178 14.96ZM74.6853 0.999998H79.9653V23.96H96.4853V29H74.6853V0.999998ZM103.318 0.999998H108.598V23.96H125.118V29H103.318V0.999998ZM154.911 0.999998V5.92H136.991V12.36H152.711V17.24H136.991V24.08H155.471V29H131.951V0.999998H154.911ZM191.093 7.88L186.653 10.44C185.693 8.84 184.466 7.61333 182.973 6.76C181.506 5.88 179.693 5.44 177.533 5.44C176.093 5.44 174.759 5.68 173.533 6.16C172.333 6.64 171.293 7.30667 170.413 8.16C169.559 8.98667 168.879 9.98667 168.373 11.16C167.893 12.3333 167.653 13.6 167.653 14.96C167.653 16.2933 167.879 17.5467 168.333 18.72C168.813 19.8933 169.479 20.92 170.333 21.8C171.213 22.6533 172.293 23.3333 173.573 23.84C174.853 24.32 176.293 24.56 177.893 24.56C179.893 24.56 181.666 24.12 183.213 23.24C184.786 22.3333 186.026 20.92 186.933 19L191.493 21.4C190.186 23.88 188.399 25.8533 186.133 27.32C183.866 28.7867 181.119 29.52 177.893 29.52C175.653 29.52 173.586 29.1733 171.693 28.48C169.826 27.76 168.213 26.76 166.853 25.48C165.493 24.2 164.426 22.6667 163.653 20.88C162.906 19.0933 162.533 17.12 162.533 14.96C162.533 12.8533 162.919 10.92 163.693 9.16C164.466 7.37333 165.519 5.84 166.853 4.56C168.186 3.28 169.773 2.28 171.613 1.56C173.453 0.839998 175.426 0.479998 177.533 0.479998C178.919 0.479998 180.293 0.626665 181.653 0.919999C183.013 1.21333 184.279 1.66666 185.453 2.28C186.626 2.86667 187.693 3.62667 188.653 4.56C189.639 5.49333 190.453 6.6 191.093 7.88ZM206.215 5.96H195.575V0.999998H222.095V5.96H211.455V29H206.215V5.96ZM228.865 0.999998H234.265V29H228.865V0.999998ZM242.923 14.96C242.923 12.8 243.323 10.8267 244.123 9.04C244.923 7.25333 246.003 5.73333 247.363 4.48C248.723 3.22667 250.323 2.25333 252.163 1.56C254.03 0.839998 256.003 0.479998 258.083 0.479998C260.297 0.479998 262.337 0.839998 264.203 1.56C266.07 2.28 267.67 3.28 269.003 4.56C270.363 5.84 271.417 7.37333 272.163 9.16C272.937 10.92 273.323 12.8533 273.323 14.96C273.323 17.12 272.923 19.1067 272.123 20.92C271.35 22.7067 270.283 24.24 268.923 25.52C267.59 26.7733 265.99 27.76 264.123 28.48C262.257 29.1733 260.243 29.52 258.083 29.52C255.977 29.52 253.99 29.1733 252.123 28.48C250.257 27.76 248.643 26.7733 247.283 25.52C245.95 24.24 244.883 22.7067 244.083 20.92C243.31 19.1067 242.923 17.12 242.923 14.96ZM248.083 14.96C248.083 16.3733 248.323 17.68 248.803 18.88C249.31 20.0533 250.003 21.0667 250.883 21.92C251.763 22.7467 252.817 23.4 254.043 23.88C255.297 24.3333 256.643 24.56 258.083 24.56C259.577 24.56 260.937 24.3333 262.163 23.88C263.417 23.4 264.483 22.7467 265.363 21.92C266.243 21.0667 266.923 20.0533 267.403 18.88C267.91 17.68 268.163 16.3733 268.163 14.96C268.163 13.6267 267.923 12.3733 267.443 11.2C266.99 10.0267 266.323 9.02667 265.443 8.2C264.59 7.34666 263.537 6.68 262.283 6.2C261.03 5.69333 259.63 5.44 258.083 5.44C256.563 5.44 255.177 5.69333 253.923 6.2C252.697 6.68 251.643 7.34666 250.763 8.2C249.91 9.02667 249.243 10.0267 248.763 11.2C248.31 12.3733 248.083 13.6267 248.083 14.96ZM303.831 0.999998H308.911V29H304.551L287.071 6.72V29H281.951V0.999998H289.111L303.831 19.8V0.999998ZM356.058 0.999998H361.138V29H356.778L339.298 6.72V29H334.178V0.999998H341.338L356.058 19.8V0.999998ZM372.399 0.479998C373.999 0.479998 375.319 0.986665 376.359 2C377.426 3.01333 377.959 4.29333 377.959 5.84C377.959 7.44 377.426 8.74666 376.359 9.76C375.293 10.7467 373.973 11.24 372.399 11.24C370.853 11.24 369.546 10.7467 368.479 9.76C367.439 8.74666 366.919 7.44 366.919 5.84C366.919 4.24 367.453 2.94666 368.519 1.96C369.586 0.973331 370.879 0.479998 372.399 0.479998ZM372.399 3.72C371.733 3.72 371.199 3.93333 370.799 4.36C370.399 4.76 370.199 5.25333 370.199 5.84C370.199 6.45333 370.399 6.96 370.799 7.36C371.226 7.73333 371.759 7.92 372.399 7.92C373.066 7.92 373.613 7.73333 374.039 7.36C374.466 6.96 374.679 6.45333 374.679 5.84C374.679 5.25333 374.466 4.76 374.039 4.36C373.613 3.93333 373.066 3.72 372.399 3.72ZM383.788 15.64L385.068 0.999998H402.988V5.6H389.348L388.828 11.52C389.761 10.9333 390.708 10.5467 391.668 10.36C392.628 10.1467 393.521 10.04 394.348 10.04C397.548 10.04 400.094 10.8933 401.988 12.6C403.908 14.3067 404.868 16.64 404.868 19.6C404.868 22.6133 403.868 25.0267 401.868 26.84C399.868 28.6267 397.161 29.52 393.748 29.52C391.241 29.52 388.988 28.9867 386.988 27.92C385.014 26.8533 383.561 25.2667 382.628 23.16L387.228 21.12C387.841 22.48 388.734 23.4667 389.908 24.08C391.081 24.6667 392.401 24.96 393.868 24.96C395.708 24.96 397.188 24.4933 398.308 23.56C399.454 22.6267 400.028 21.36 400.028 19.76C400.028 18.2667 399.494 17.04 398.428 16.08C397.361 15.0933 395.894 14.6 394.028 14.6C392.908 14.6 391.868 14.8 390.908 15.2C389.948 15.6 389.081 16.2133 388.308 17.04L383.788 15.64Z" fill="white"/>
</svg>
