<svg width="175" height="175" viewBox="0 0 175 175" fill="none" xmlns="http://www.w3.org/2000/svg">
<path d="M55.6399 75.4351V69.2521H52.3145V86.2507H55.6399V78.9944H63.7998V86.2553H67.1435V69.2521H63.7906V75.4305L55.6399 75.4351Z" fill="white"/>
<path d="M125.291 69.2521H113.182V86.2507H126.084V82.9849H116.626V79.3293H124.318V75.8983H116.626V72.5316H125.282L125.291 69.2521Z" fill="white"/>
<path d="M104.761 86.2507H107.453V69.2567H104.132V79.4026L96.83 69.2567H92.4634V86.2507H95.7154V73.6462L104.761 86.2507Z" fill="white"/>
<path d="M79.5283 72.3436L76.5514 79.0907H82.5143L79.5283 72.3436ZM77.345 69.2567H81.8996L89.4403 86.2507H85.6746L83.982 82.4804H75.024L73.3407 86.2507H69.7676L77.345 69.2567Z" fill="white"/>
<path d="M134.065 69.2475L130.616 69.2521V86.2507H143V82.9849H134.065V69.2475Z" fill="white"/>
<path d="M48.6176 81.6364C47.7509 83.3936 46.32 84.8095 44.5538 85.6579C42.7876 86.5062 40.788 86.7379 38.8746 86.3161C36.9612 85.8942 35.2444 84.8431 33.9987 83.3308C32.7529 81.8184 32.0501 79.9321 32.0026 77.9733C31.955 76.0145 32.5655 74.0963 33.7364 72.5253C34.9074 70.9543 36.5711 69.8212 38.4618 69.307C40.3525 68.7929 42.361 68.9274 44.1663 69.689C45.9716 70.4507 47.4694 71.7955 48.4204 73.5086L45.5307 75.1553C44.9107 74.051 43.9288 73.1944 42.7506 72.7299C41.5725 72.2653 40.2702 72.2212 39.0634 72.605C38.2972 72.8761 37.5984 73.3089 37.0143 73.874C36.4303 74.4391 35.9746 75.1232 35.6783 75.88C34.4491 79.7054 37.1277 83.173 40.7467 83.173C41.7728 83.1695 42.7767 82.8738 43.641 82.3207C44.5053 81.7675 45.1941 80.9797 45.6271 80.0494L48.6176 81.6364Z" fill="white"/>
<path d="M42.4713 99.7818V96.6994H42.9299V103.96H42.4713V100.213H38.0588V103.96H37.6001V96.6994H38.0588V99.7818H42.4713Z" fill="white"/>
<path d="M47.1313 101.566L46.1589 103.956H45.7002L48.7458 96.4563L51.7777 103.956H51.319L50.3145 101.566H47.1313ZM48.7321 97.6305L47.3056 101.135H50.1448L48.7321 97.6305Z" fill="white"/>
<path d="M58.6713 96.6994H59.13V101.227C59.13 101.97 59.13 102.603 58.6346 103.208C58.3809 103.476 58.0751 103.69 57.736 103.836C57.3969 103.982 57.0315 104.057 56.6623 104.057C56.2931 104.057 55.9278 103.982 55.5887 103.836C55.2496 103.69 54.9438 103.476 54.69 103.208C54.1992 102.603 54.1992 101.97 54.1992 101.227V96.6994H54.6579V101.107C54.6579 101.759 54.6579 102.451 55.034 102.942C55.2426 103.165 55.4947 103.343 55.7748 103.464C56.0549 103.586 56.357 103.649 56.6623 103.649C56.9677 103.649 57.2698 103.586 57.5499 103.464C57.83 103.343 58.0821 103.165 58.2906 102.942C58.6668 102.483 58.6668 101.768 58.6668 101.107L58.6713 96.6994Z" fill="white"/>
<path d="M64.1713 103.96H63.7126V97.1352H61.832V96.6765H66.0473V97.1352H64.1713V103.96Z" fill="white"/>
<path d="M69.2767 97.1352V99.7726H72.2031V100.19H69.2767V103.515H72.2811V103.947H68.8135V96.6994H72.2811V97.1581L69.2767 97.1352Z" fill="white"/>
<path d="M81.0742 96.6994V103.827C81.0742 104.745 80.8541 105.483 79.7945 105.483C79.5397 105.481 79.2909 105.405 79.0779 105.265C78.8648 105.125 78.6965 104.927 78.5928 104.694L78.9368 104.433C79.0162 104.611 79.1445 104.764 79.3068 104.872C79.4691 104.981 79.6589 105.042 79.8541 105.047C80.5743 105.047 80.6339 104.373 80.6339 103.827V96.6994H81.0742Z" fill="white"/>
<path d="M91.5636 100.332C91.5708 101.078 91.3562 101.81 90.9468 102.434C90.5375 103.058 89.9519 103.547 89.2645 103.837C88.5771 104.128 87.8188 104.208 87.0859 104.067C86.353 103.926 85.6786 103.57 85.1483 103.045C84.6179 102.519 84.2556 101.849 84.1073 101.117C83.959 100.386 84.0314 99.6266 84.3153 98.9364C84.5992 98.2461 85.0819 97.6558 85.7019 97.2404C86.3219 96.8249 87.0515 96.6031 87.7978 96.6031C88.7891 96.6066 89.7394 96.9995 90.4438 97.697C91.1482 98.3945 91.5503 99.3409 91.5636 100.332ZM84.4953 100.332C84.4935 100.986 84.6856 101.625 85.0474 102.169C85.4092 102.714 85.9243 103.138 86.5276 103.39C87.1309 103.641 87.7952 103.708 88.4364 103.581C89.0777 103.455 89.667 103.141 90.1298 102.68C90.5925 102.218 90.908 101.63 91.0361 100.989C91.1643 100.348 91.0995 99.6836 90.8498 99.0796C90.6001 98.4757 90.1768 97.9593 89.6335 97.596C89.0902 97.2328 88.4514 97.0388 87.7978 97.0388C86.9254 97.0448 86.0902 97.3934 85.4724 98.0095C84.8546 98.6255 84.5037 99.4597 84.4953 100.332Z" fill="white"/>
<path d="M94.8061 101.566L93.8337 103.956H93.375L96.4206 96.4563L99.4525 103.956H98.9938L98.0168 101.566H94.8061ZM96.4069 97.6305L94.9804 101.135H97.8196L96.4069 97.6305Z" fill="white"/>
<path d="M102.674 103.96H102.215V96.6994H102.674V103.96Z" fill="white"/>
<path d="M107.003 103.529H108.838V103.96H106.544V96.6994H107.003V103.529Z" fill="white"/>
<path d="M112.081 103.529H113.915V103.96H111.622V96.6994H112.081V103.529Z" fill="white"/>
<path d="M117.158 97.1352V99.7726H120.084V100.19H117.158V103.515H120.162V103.947H116.694V96.6994H120.162V97.1581L117.158 97.1352Z" fill="white"/>
<path d="M127.098 103.96H126.57L124.199 100.525H123.969V103.96H123.511V96.6994H124.428C125.005 96.6378 125.587 96.7667 126.084 97.0664C126.325 97.2463 126.517 97.4826 126.645 97.7546C126.773 98.0265 126.833 98.3257 126.818 98.6259C126.818 99.8872 125.942 100.543 124.735 100.525L127.098 103.96ZM124.557 100.089C125.007 100.138 125.459 100.019 125.827 99.7542C125.991 99.6126 126.122 99.4363 126.21 99.238C126.298 99.0397 126.341 98.8244 126.336 98.6075C126.351 98.3373 126.286 98.0688 126.149 97.8354C126.012 97.6021 125.809 97.4144 125.566 97.2957C125.149 97.1502 124.707 97.0955 124.268 97.1352H123.969V100.089H124.557Z" fill="white"/>
<path d="M130.584 103.96H130.125V96.6994H130.584V103.96Z" fill="white"/>
<path d="M134.542 97.1352V99.7726H137.463V100.19H134.532V103.515H137.537V103.947H134.074V96.6994H137.537V97.1581L134.542 97.1352Z" fill="white"/>
</svg>
