<svg width="375" height="78" viewBox="0 0 375 78" fill="none" xmlns="http://www.w3.org/2000/svg">
<g clip-path="url(#clip0)">
<rect width="375" height="78" fill="white"/>
<path d="M155.64 26.4349V20.252H152.314V37.2506H155.64V29.9943H163.8V37.2552H167.144V20.252H163.791V26.4304L155.64 26.4349Z" fill="black"/>
<path d="M225.291 20.252H213.182V37.2506H226.084V33.9848H216.626V30.3291H224.318V26.8982H216.626V23.5315H225.282L225.291 20.252Z" fill="black"/>
<path d="M204.761 37.2509H207.453V20.2568H204.132V30.4028L196.83 20.2568H192.463V37.2509H195.715V24.6464L204.761 37.2509Z" fill="black"/>
<path d="M179.528 23.3437L176.551 30.0909H182.514L179.528 23.3437ZM177.345 20.2568H181.9L189.44 37.2509H185.675L183.982 33.4805H175.024L173.341 37.2509H169.768L177.345 20.2568Z" fill="black"/>
<path d="M234.065 20.2471L230.616 20.2517V37.2503H243V33.9845H234.065V20.2471Z" fill="black"/>
<path d="M148.618 32.6364C147.751 34.3936 146.32 35.8095 144.554 36.6579C142.788 37.5062 140.788 37.7379 138.875 37.3161C136.961 36.8942 135.244 35.8431 133.999 34.3308C132.753 32.8184 132.05 30.9321 132.003 28.9733C131.955 27.0145 132.566 25.0963 133.736 23.5253C134.907 21.9543 136.571 20.8212 138.462 20.307C140.353 19.7929 142.361 19.9274 144.166 20.689C145.972 21.4507 147.469 22.7955 148.42 24.5086L145.531 26.1553C144.911 25.051 143.929 24.1944 142.751 23.7299C141.573 23.2653 140.27 23.2212 139.063 23.605C138.297 23.8761 137.598 24.3089 137.014 24.874C136.43 25.4391 135.975 26.1232 135.678 26.88C134.449 30.7054 137.128 34.173 140.747 34.173C141.773 34.1695 142.777 33.8738 143.641 33.3207C144.505 32.7675 145.194 31.9797 145.627 31.0494L148.618 32.6364Z" fill="black"/>
<path d="M142.471 50.7815V47.6992H142.93V54.9601H142.471V51.2127H138.059V54.9601H137.6V47.6992H138.059V50.7815H142.471Z" fill="black"/>
<path d="M147.131 52.5657L146.159 54.9555H145.7L148.746 47.4561L151.778 54.9555H151.319L150.315 52.5657H147.131ZM148.732 48.6303L147.306 52.1346H150.145L148.732 48.6303Z" fill="black"/>
<path d="M158.671 47.6992H159.13V52.2264C159.13 52.9694 159.13 53.6024 158.635 54.2079C158.381 54.476 158.075 54.6896 157.736 54.8356C157.397 54.9816 157.032 55.0569 156.662 55.0569C156.293 55.0569 155.928 54.9816 155.589 54.8356C155.25 54.6896 154.944 54.476 154.69 54.2079C154.199 53.6024 154.199 52.9694 154.199 52.2264V47.6992H154.658V52.1071C154.658 52.7584 154.658 53.4511 155.034 53.9418C155.243 54.1649 155.495 54.3427 155.775 54.4643C156.055 54.5858 156.357 54.6486 156.662 54.6486C156.968 54.6486 157.27 54.5858 157.55 54.4643C157.83 54.3427 158.082 54.1649 158.291 53.9418C158.667 53.4832 158.667 52.7676 158.667 52.1071L158.671 47.6992Z" fill="black"/>
<path d="M164.171 54.9606H163.713V48.1354H161.832V47.6768H166.047V48.1354H164.171V54.9606Z" fill="black"/>
<path d="M169.277 48.135V50.7724H172.203V51.1898H169.277V54.5152H172.281V54.9463H168.813V47.6992H172.281V48.1579L169.277 48.135Z" fill="black"/>
<path d="M181.074 47.6992V54.8271C181.074 55.7444 180.854 56.4829 179.795 56.4829C179.54 56.4804 179.291 56.4046 179.078 56.2648C178.865 56.1249 178.696 55.9268 178.593 55.694L178.937 55.4325C179.016 55.611 179.145 55.7634 179.307 55.8722C179.469 55.9809 179.659 56.0416 179.854 56.0472C180.574 56.0472 180.634 55.3729 180.634 54.8271V47.6992H181.074Z" fill="black"/>
<path d="M191.564 51.3326C191.571 52.0789 191.356 52.8105 190.947 53.4346C190.537 54.0587 189.952 54.5471 189.265 54.8377C188.577 55.1284 187.819 55.2082 187.086 55.0671C186.353 54.926 185.679 54.5702 185.148 54.0451C184.618 53.5199 184.256 52.849 184.107 52.1175C183.959 51.3861 184.031 50.627 184.315 49.9368C184.599 49.2465 185.082 48.6562 185.702 48.2408C186.322 47.8254 187.051 47.6036 187.798 47.6035C188.789 47.607 189.739 47.9999 190.444 48.6974C191.148 49.395 191.55 50.3413 191.564 51.3326ZM184.495 51.3326C184.493 51.9861 184.686 52.6255 185.047 53.1698C185.409 53.7141 185.924 54.1388 186.528 54.3902C187.131 54.6416 187.795 54.7083 188.436 54.5819C189.078 54.4555 189.667 54.1417 190.13 53.6802C190.593 53.2187 190.908 52.6303 191.036 51.9894C191.164 51.3485 191.099 50.6841 190.85 50.0801C190.6 49.4761 190.177 48.9598 189.634 48.5965C189.09 48.2332 188.451 48.0393 187.798 48.0393C186.925 48.0452 186.09 48.3938 185.472 49.0099C184.855 49.626 184.504 50.4602 184.495 51.3326Z" fill="black"/>
<path d="M194.806 52.5657L193.834 54.9555H193.375L196.421 47.4561L199.452 54.9555H198.994L198.017 52.5657H194.806ZM196.407 48.6303L194.98 52.1346H197.82L196.407 48.6303Z" fill="black"/>
<path d="M202.674 54.9601H202.215V47.6992H202.674V54.9601Z" fill="black"/>
<path d="M207.003 54.5289H208.838V54.9601H206.544V47.6992H207.003V54.5289Z" fill="black"/>
<path d="M212.081 54.5289H213.915V54.9601H211.622V47.6992H212.081V54.5289Z" fill="black"/>
<path d="M217.158 48.135V50.7724H220.084V51.1898H217.158V54.5152H220.162V54.9463H216.694V47.6992H220.162V48.1579L217.158 48.135Z" fill="black"/>
<path d="M227.098 54.9605H226.57L224.199 51.525H223.969V54.9605H223.511V47.6996H224.428C225.005 47.638 225.587 47.7669 226.084 48.0665C226.325 48.2465 226.517 48.4828 226.645 48.7548C226.773 49.0267 226.833 49.3259 226.818 49.626C226.818 50.8874 225.942 51.5433 224.735 51.525L227.098 54.9605ZM224.557 51.0892C225.007 51.1383 225.459 51.019 225.827 50.7544C225.991 50.6128 226.122 50.4365 226.21 50.2382C226.298 50.0399 226.341 49.8246 226.336 49.6077C226.351 49.3375 226.286 49.0689 226.149 48.8356C226.012 48.6023 225.809 48.4145 225.566 48.2959C225.149 48.1504 224.707 48.0957 224.268 48.1353H223.969V51.0892H224.557Z" fill="black"/>
<path d="M230.584 54.9601H230.125V47.6992H230.584V54.9601Z" fill="black"/>
<path d="M234.542 48.135V50.7724H237.463V51.1898H234.532V54.5152H237.537V54.9463H234.074V47.6992H237.537V48.1579L234.542 48.135Z" fill="black"/>
</g>
<defs>
<clipPath id="clip0">
<rect width="375" height="78" fill="white"/>
</clipPath>
</defs>
</svg>
