<svg width="175" height="147" viewBox="0 0 175 147" fill="none" xmlns="http://www.w3.org/2000/svg">
<path fill-rule="evenodd" clip-rule="evenodd" d="M40.7715 86C44.2239 86 47.213 84.0521 48.6423 81.2377L45.6532 79.7262C44.7721 81.5033 42.9447 82.7493 40.7715 82.7493C37.7628 82.7493 35.4002 80.4219 35.4002 77.5063C35.4002 74.5908 37.7628 72.2634 40.7715 72.2634C42.8338 72.2634 44.6286 73.3259 45.5553 74.9639L48.4465 73.3702C46.952 70.7582 44.0738 69 40.7715 69C35.9289 69 32 72.8073 32 77.5C32 82.1927 35.9289 86 40.7715 86ZM130.619 69.2403V85.7091H143V82.5469H134.065V69.234L130.619 69.2403ZM55.6574 69.2403V75.2295L63.8088 75.2232V69.2403H67.1569V85.7091H63.8154V78.6763H55.6574V85.7091H52.3355V69.2403H55.6574ZM113.187 69.2403H125.294L125.287 72.4152H116.633V75.6786H124.321V79.0052H116.633V82.5469H126.09V85.7091H113.187V69.2403ZM104.768 85.7091H107.464V69.2403H104.142V79.0748L96.8388 69.2403H92.4727V85.7091H95.7228V73.4967L104.768 85.7091ZM76.5681 78.7586L79.5441 72.2318L82.5071 78.7586H76.5681ZM81.9132 69.2403H77.3577L69.7806 85.7028H73.3571L75.0409 82.0536H83.9951L85.6854 85.7028H89.4511L81.9132 69.2403Z" fill="black"/>
<path d="M41.0577 99.8926V97.2397H36.7531V99.8926H36V94.1074H36.7531V96.6198H41.0577V94.1074H41.8108V99.8926H41.0577Z" fill="black"/>
<path d="M44.0172 99.8926H43.2363L46.2672 94.1074H47.3457L50.3952 99.8926H49.5584L48.8518 98.5455H44.7145L44.0172 99.8926ZM46.7785 94.562L45.0307 97.9421H48.545L46.7785 94.562Z" fill="black"/>
<path d="M51.4233 94.1074H52.1764V96.6777C52.1764 97.1901 52.198 97.6143 52.2414 97.9504C52.291 98.2865 52.4305 98.5647 52.6598 98.7851C52.8272 98.9394 53.0472 99.0771 53.3199 99.1983C53.5988 99.3196 53.949 99.3802 54.3705 99.3802C54.8168 99.3802 55.1763 99.3223 55.449 99.2066C55.7279 99.0909 55.9511 98.9477 56.1184 98.7769C56.3415 98.5565 56.481 98.2755 56.5368 97.9339C56.5926 97.5923 56.6205 97.1736 56.6205 96.6777V94.1074H57.3735V96.7107C57.3735 97.2397 57.3364 97.7107 57.262 98.124C57.1876 98.5317 57.0109 98.8815 56.732 99.1736C56.5151 99.4105 56.2176 99.6088 55.8395 99.7686C55.4614 99.9229 54.9717 100 54.3705 100C53.8127 100 53.3478 99.9229 52.9759 99.7686C52.6102 99.6143 52.3189 99.4353 52.102 99.2314C51.7983 98.9394 51.6092 98.5868 51.5348 98.1736C51.4605 97.7548 51.4233 97.2672 51.4233 96.7107V94.1074Z" fill="black"/>
<path d="M61.3902 94.7273H58.8613V94.1074H64.6721V94.7273H62.1433V99.8926H61.3902V94.7273Z" fill="black"/>
<path d="M71.5656 94.1074V94.7107H67.2144V96.6529H71.0542V97.2562H67.2144V99.2893H71.6957V99.8926H66.4614V94.1074H71.5656Z" fill="black"/>
<path d="M80.9794 94.1074H81.7325V97.876C81.7325 98.2066 81.6674 98.5041 81.5372 98.7686C81.4071 99.0275 81.2242 99.2507 80.9887 99.438C80.7593 99.6198 80.4835 99.7603 80.1612 99.8595C79.8389 99.9532 79.4918 100 79.1199 100C78.7108 100 78.3482 99.9449 78.0321 99.8347C77.7222 99.7245 77.4588 99.584 77.2419 99.4132C77.0249 99.2369 76.8483 99.0413 76.7119 98.8264C76.5818 98.6061 76.4919 98.3884 76.4423 98.1736L77.1768 97.9835C77.2884 98.4353 77.5146 98.7824 77.8555 99.0248C78.1964 99.2617 78.6272 99.3802 79.1478 99.3802C79.718 99.3802 80.1643 99.2479 80.4866 98.9835C80.8151 98.7135 80.9794 98.3223 80.9794 97.8099V94.1074Z" fill="black"/>
<path d="M83.5467 96.9917C83.5467 96.584 83.6304 96.1983 83.7978 95.8347C83.9713 95.4656 84.2099 95.146 84.5137 94.876C84.8236 94.6061 85.1924 94.3939 85.62 94.2397C86.0539 94.0799 86.525 94 87.0332 94C87.5477 94 88.0156 94.0799 88.4371 94.2397C88.8648 94.3994 89.2274 94.6143 89.5249 94.8843C89.8286 95.1543 90.061 95.4711 90.2222 95.8347C90.3895 96.1983 90.4732 96.584 90.4732 96.9917C90.4732 97.3994 90.3895 97.7879 90.2222 98.157C90.061 98.5207 89.8317 98.8402 89.5342 99.1157C89.2367 99.3857 88.8741 99.6006 88.4464 99.7603C88.0187 99.9201 87.5446 100 87.0239 100C86.5033 100 86.026 99.9201 85.5921 99.7603C85.1645 99.6006 84.7988 99.3857 84.4951 99.1157C84.1976 98.8402 83.9651 98.5207 83.7978 98.157C83.6304 97.7879 83.5467 97.3994 83.5467 96.9917ZM84.2998 96.9917C84.2998 97.2837 84.3525 97.5758 84.4579 97.8678C84.5694 98.1543 84.7368 98.4105 84.9599 98.6364C85.1831 98.8568 85.4651 99.0358 85.806 99.1736C86.1531 99.3113 86.5622 99.3802 87.0332 99.3802C87.4609 99.3802 87.8421 99.3113 88.1768 99.1736C88.5177 99.0358 88.7997 98.8568 89.0228 98.6364C89.2522 98.4105 89.4257 98.1543 89.5435 97.8678C89.6613 97.5758 89.7201 97.2837 89.7201 96.9917C89.7201 96.6832 89.6551 96.3857 89.5249 96.0992C89.4009 95.8127 89.2212 95.562 88.9857 95.3471C88.7501 95.1267 88.465 94.9504 88.1303 94.8182C87.8018 94.686 87.433 94.6198 87.0239 94.6198C86.6148 94.6198 86.2399 94.686 85.899 94.8182C85.5643 94.9449 85.2791 95.1185 85.0436 95.3388C84.8081 95.5537 84.6252 95.8044 84.4951 96.0909C84.3649 96.3774 84.2998 96.6777 84.2998 96.9917Z" fill="black"/>
<path d="M92.1562 99.8926H91.3752L94.4061 94.1074H95.4846L98.5341 99.8926H97.6974L96.9908 98.5455H92.8535L92.1562 99.8926ZM94.9175 94.562L93.1696 97.9421H96.684L94.9175 94.562Z" fill="black"/>
<path d="M99.9552 94.1074H100.708V99.8926H99.9552V94.1074Z" fill="black"/>
<path d="M103.296 94.1074H104.05V99.2727H108.038V99.8926H103.296V94.1074Z" fill="black"/>
<path d="M109.779 94.1074H110.532V99.2727H114.521V99.8926H109.779V94.1074Z" fill="black"/>
<path d="M121.366 94.1074V94.7107H117.015V96.6529H120.855V97.2562H117.015V99.2893H121.496V99.8926H116.262V94.1074H121.366Z" fill="black"/>
<path d="M123.698 94.1074H126.97C127.169 94.1074 127.352 94.1185 127.519 94.1405C127.686 94.1625 127.838 94.1956 127.975 94.2397C128.204 94.3168 128.402 94.4187 128.57 94.5455C128.737 94.6722 128.873 94.8127 128.979 94.9669C129.09 95.1157 129.174 95.2782 129.23 95.4545C129.286 95.6253 129.313 95.7934 129.313 95.9587C129.313 96.3884 129.174 96.7658 128.895 97.0909C128.622 97.416 128.235 97.6474 127.733 97.7851L129.434 99.8926H128.532L126.97 97.9091H124.442V99.8926H123.698V94.1074ZM124.442 97.314H126.961C127.135 97.314 127.293 97.303 127.435 97.281C127.578 97.2534 127.705 97.2149 127.817 97.1653C128.089 97.0441 128.281 96.8733 128.393 96.6529C128.511 96.427 128.57 96.1983 128.57 95.9669C128.57 95.7521 128.508 95.5372 128.384 95.3223C128.26 95.1074 128.055 94.9449 127.77 94.8347C127.665 94.7906 127.541 94.7576 127.398 94.7355C127.262 94.7135 127.101 94.7025 126.915 94.7025H124.442V97.314Z" fill="black"/>
<path d="M131.424 94.1074H132.177V99.8926H131.424V94.1074Z" fill="black"/>
<path d="M139.87 94.1074V94.7107H135.519V96.6529H139.358V97.2562H135.519V99.2893H140V99.8926H134.766V94.1074H139.87Z" fill="black"/>
</svg>
